<mxfile host="app.diagrams.net" agent="Mozilla/5.0 (Windows NT 10.0; Win64; x64) AppleWebKit/537.36 (KHTML, like Gecko) Chrome/133.0.0.0 Safari/537.36 OPR/118.0.0.0" version="26.2.14">
  <diagram name="Page-1" id="cB23uAyPclpQdBclVdgD">
    <mxGraphModel dx="1858" dy="632" grid="0" gridSize="10" guides="1" tooltips="1" connect="1" arrows="1" fold="1" page="0" pageScale="1" pageWidth="850" pageHeight="1100" math="0" shadow="0">
      <root>
        <mxCell id="0" />
        <mxCell id="1" parent="0" />
        <mxCell id="4-qEtb7NXYfSOB5wchUg-1" style="edgeStyle=none;curved=1;rounded=0;orthogonalLoop=1;jettySize=auto;html=1;exitX=0.5;exitY=0.5;exitDx=0;exitDy=0;exitPerimeter=0;fontFamily=Architects Daughter;fontSource=https%3A%2F%2Ffonts.googleapis.com%2Fcss%3Ffamily%3DArchitects%2BDaughter;fontSize=16;startSize=14;endArrow=open;endSize=14;sourcePerimeterSpacing=8;targetPerimeterSpacing=8;" edge="1" parent="1" source="4-qEtb7NXYfSOB5wchUg-3" target="4-qEtb7NXYfSOB5wchUg-7">
          <mxGeometry relative="1" as="geometry" />
        </mxCell>
        <mxCell id="4-qEtb7NXYfSOB5wchUg-2" style="edgeStyle=none;curved=1;rounded=0;orthogonalLoop=1;jettySize=auto;html=1;entryX=0.5;entryY=1;entryDx=0;entryDy=0;fontFamily=Architects Daughter;fontSource=https%3A%2F%2Ffonts.googleapis.com%2Fcss%3Ffamily%3DArchitects%2BDaughter;fontSize=16;startSize=14;endArrow=open;endSize=14;sourcePerimeterSpacing=8;targetPerimeterSpacing=8;" edge="1" parent="1" source="4-qEtb7NXYfSOB5wchUg-3" target="4-qEtb7NXYfSOB5wchUg-9">
          <mxGeometry relative="1" as="geometry" />
        </mxCell>
        <mxCell id="4-qEtb7NXYfSOB5wchUg-3" value="Student&lt;div&gt;&lt;br&gt;&lt;/div&gt;" style="shape=umlActor;verticalLabelPosition=bottom;verticalAlign=top;html=1;outlineConnect=0;fontFamily=Architects Daughter;fontSource=https%3A%2F%2Ffonts.googleapis.com%2Fcss%3Ffamily%3DArchitects%2BDaughter;" vertex="1" parent="1">
          <mxGeometry x="-140" y="507" width="30" height="60" as="geometry" />
        </mxCell>
        <mxCell id="4-qEtb7NXYfSOB5wchUg-4" value="&lt;div&gt;Parent&lt;/div&gt;&lt;div&gt;&lt;br&gt;&lt;/div&gt;" style="shape=umlActor;verticalLabelPosition=bottom;verticalAlign=top;html=1;outlineConnect=0;fontFamily=Architects Daughter;fontSource=https%3A%2F%2Ffonts.googleapis.com%2Fcss%3Ffamily%3DArchitects%2BDaughter;" vertex="1" parent="1">
          <mxGeometry x="446" y="746" width="30" height="60" as="geometry" />
        </mxCell>
        <mxCell id="4-qEtb7NXYfSOB5wchUg-5" value="&lt;div&gt;Instructor&lt;/div&gt;&lt;div&gt;&lt;br&gt;&lt;/div&gt;" style="shape=umlActor;verticalLabelPosition=bottom;verticalAlign=top;html=1;outlineConnect=0;fontFamily=Architects Daughter;fontSource=https%3A%2F%2Ffonts.googleapis.com%2Fcss%3Ffamily%3DArchitects%2BDaughter;" vertex="1" parent="1">
          <mxGeometry x="412" y="609" width="30" height="60" as="geometry" />
        </mxCell>
        <mxCell id="4-qEtb7NXYfSOB5wchUg-6" value="Register/Login" style="ellipse;whiteSpace=wrap;html=1;fontFamily=Architects Daughter;fontSource=https%3A%2F%2Ffonts.googleapis.com%2Fcss%3Ffamily%3DArchitects%2BDaughter;" vertex="1" parent="1">
          <mxGeometry x="45" y="349" width="103" height="70" as="geometry" />
        </mxCell>
        <mxCell id="4-qEtb7NXYfSOB5wchUg-7" value="Take exam" style="ellipse;whiteSpace=wrap;html=1;fontFamily=Architects Daughter;fontSource=https%3A%2F%2Ffonts.googleapis.com%2Fcss%3Ffamily%3DArchitects%2BDaughter;" vertex="1" parent="1">
          <mxGeometry x="45" y="497" width="103" height="70" as="geometry" />
        </mxCell>
        <mxCell id="4-qEtb7NXYfSOB5wchUg-8" value="Message Instructor" style="ellipse;whiteSpace=wrap;html=1;fontFamily=Architects Daughter;fontSource=https%3A%2F%2Ffonts.googleapis.com%2Fcss%3Ffamily%3DArchitects%2BDaughter;" vertex="1" parent="1">
          <mxGeometry x="53" y="629" width="103" height="70" as="geometry" />
        </mxCell>
        <mxCell id="4-qEtb7NXYfSOB5wchUg-9" value="View coursework" style="ellipse;whiteSpace=wrap;html=1;fontFamily=Architects Daughter;fontSource=https%3A%2F%2Ffonts.googleapis.com%2Fcss%3Ffamily%3DArchitects%2BDaughter;" vertex="1" parent="1">
          <mxGeometry x="-176.5" y="306" width="103" height="70" as="geometry" />
        </mxCell>
        <mxCell id="4-qEtb7NXYfSOB5wchUg-10" value="Upload file" style="ellipse;whiteSpace=wrap;html=1;fontFamily=Architects Daughter;fontSource=https%3A%2F%2Ffonts.googleapis.com%2Fcss%3Ffamily%3DArchitects%2BDaughter;" vertex="1" parent="1">
          <mxGeometry x="-357" y="376" width="103" height="70" as="geometry" />
        </mxCell>
        <mxCell id="4-qEtb7NXYfSOB5wchUg-11" value="View calendar" style="ellipse;whiteSpace=wrap;html=1;fontFamily=Architects Daughter;fontSource=https%3A%2F%2Ffonts.googleapis.com%2Fcss%3Ffamily%3DArchitects%2BDaughter;" vertex="1" parent="1">
          <mxGeometry x="-357" y="507" width="103" height="70" as="geometry" />
        </mxCell>
        <mxCell id="4-qEtb7NXYfSOB5wchUg-12" value="Make a Payment" style="ellipse;whiteSpace=wrap;html=1;fontFamily=Architects Daughter;fontSource=https%3A%2F%2Ffonts.googleapis.com%2Fcss%3Ffamily%3DArchitects%2BDaughter;" vertex="1" parent="1">
          <mxGeometry x="-393" y="638" width="103" height="70" as="geometry" />
        </mxCell>
        <mxCell id="4-qEtb7NXYfSOB5wchUg-13" value="Cancel Payment" style="ellipse;whiteSpace=wrap;html=1;fontFamily=Architects Daughter;fontSource=https%3A%2F%2Ffonts.googleapis.com%2Fcss%3Ffamily%3DArchitects%2BDaughter;" vertex="1" parent="1">
          <mxGeometry x="-393" y="755" width="103" height="70" as="geometry" />
        </mxCell>
        <mxCell id="4-qEtb7NXYfSOB5wchUg-14" value="Receive reminders" style="ellipse;whiteSpace=wrap;html=1;fontFamily=Architects Daughter;fontSource=https%3A%2F%2Ffonts.googleapis.com%2Fcss%3Ffamily%3DArchitects%2BDaughter;" vertex="1" parent="1">
          <mxGeometry x="-393" y="861" width="103" height="70" as="geometry" />
        </mxCell>
        <mxCell id="4-qEtb7NXYfSOB5wchUg-15" value="" style="edgeStyle=elbowEdgeStyle;elbow=horizontal;endArrow=classic;html=1;curved=0;rounded=0;endSize=8;startSize=8;fontFamily=Architects Daughter;fontSource=https%3A%2F%2Ffonts.googleapis.com%2Fcss%3Ffamily%3DArchitects%2BDaughter;fontSize=16;sourcePerimeterSpacing=8;targetPerimeterSpacing=8;entryX=0;entryY=0.5;entryDx=0;entryDy=0;" edge="1" parent="1" target="4-qEtb7NXYfSOB5wchUg-6">
          <mxGeometry width="50" height="50" relative="1" as="geometry">
            <mxPoint x="-110" y="527" as="sourcePoint" />
            <mxPoint x="-56" y="381" as="targetPoint" />
          </mxGeometry>
        </mxCell>
        <mxCell id="4-qEtb7NXYfSOB5wchUg-16" value="" style="edgeStyle=elbowEdgeStyle;elbow=horizontal;endArrow=classic;html=1;curved=0;rounded=0;endSize=8;startSize=8;fontFamily=Architects Daughter;fontSource=https%3A%2F%2Ffonts.googleapis.com%2Fcss%3Ffamily%3DArchitects%2BDaughter;fontSize=16;sourcePerimeterSpacing=8;targetPerimeterSpacing=8;entryX=0;entryY=0.5;entryDx=0;entryDy=0;" edge="1" parent="1" source="4-qEtb7NXYfSOB5wchUg-3" target="4-qEtb7NXYfSOB5wchUg-8">
          <mxGeometry width="50" height="50" relative="1" as="geometry">
            <mxPoint x="-121" y="536" as="sourcePoint" />
            <mxPoint x="-8" y="619" as="targetPoint" />
            <Array as="points">
              <mxPoint x="-35" y="595" />
            </Array>
          </mxGeometry>
        </mxCell>
        <mxCell id="4-qEtb7NXYfSOB5wchUg-17" value="" style="edgeStyle=elbowEdgeStyle;elbow=horizontal;endArrow=classic;html=1;curved=0;rounded=0;endSize=8;startSize=8;fontFamily=Architects Daughter;fontSource=https%3A%2F%2Ffonts.googleapis.com%2Fcss%3Ffamily%3DArchitects%2BDaughter;fontSize=16;sourcePerimeterSpacing=8;targetPerimeterSpacing=8;exitX=0;exitY=0.3333333333333333;exitDx=0;exitDy=0;exitPerimeter=0;entryX=1;entryY=0.5;entryDx=0;entryDy=0;" edge="1" parent="1" source="4-qEtb7NXYfSOB5wchUg-3" target="4-qEtb7NXYfSOB5wchUg-10">
          <mxGeometry width="50" height="50" relative="1" as="geometry">
            <mxPoint x="-231" y="534" as="sourcePoint" />
            <mxPoint x="-181" y="484" as="targetPoint" />
          </mxGeometry>
        </mxCell>
        <mxCell id="4-qEtb7NXYfSOB5wchUg-18" style="edgeStyle=none;curved=1;rounded=0;orthogonalLoop=1;jettySize=auto;html=1;entryX=0.95;entryY=0.405;entryDx=0;entryDy=0;entryPerimeter=0;fontFamily=Architects Daughter;fontSource=https%3A%2F%2Ffonts.googleapis.com%2Fcss%3Ffamily%3DArchitects%2BDaughter;fontSize=16;startSize=14;endArrow=open;endSize=14;sourcePerimeterSpacing=8;targetPerimeterSpacing=8;" edge="1" parent="1" source="4-qEtb7NXYfSOB5wchUg-3" target="4-qEtb7NXYfSOB5wchUg-11">
          <mxGeometry relative="1" as="geometry" />
        </mxCell>
        <mxCell id="4-qEtb7NXYfSOB5wchUg-19" value="" style="edgeStyle=elbowEdgeStyle;elbow=horizontal;endArrow=classic;html=1;curved=0;rounded=0;endSize=8;startSize=8;fontFamily=Architects Daughter;fontSource=https%3A%2F%2Ffonts.googleapis.com%2Fcss%3Ffamily%3DArchitects%2BDaughter;fontSize=16;sourcePerimeterSpacing=8;targetPerimeterSpacing=8;exitX=0;exitY=1;exitDx=0;exitDy=0;exitPerimeter=0;entryX=1;entryY=0.5;entryDx=0;entryDy=0;" edge="1" parent="1" source="4-qEtb7NXYfSOB5wchUg-3" target="4-qEtb7NXYfSOB5wchUg-12">
          <mxGeometry width="50" height="50" relative="1" as="geometry">
            <mxPoint x="-186" y="691" as="sourcePoint" />
            <mxPoint x="-136" y="641" as="targetPoint" />
          </mxGeometry>
        </mxCell>
        <mxCell id="4-qEtb7NXYfSOB5wchUg-20" value="" style="edgeStyle=elbowEdgeStyle;elbow=horizontal;endArrow=classic;html=1;curved=0;rounded=0;endSize=8;startSize=8;fontFamily=Architects Daughter;fontSource=https%3A%2F%2Ffonts.googleapis.com%2Fcss%3Ffamily%3DArchitects%2BDaughter;fontSize=16;sourcePerimeterSpacing=8;targetPerimeterSpacing=8;exitX=0;exitY=1;exitDx=0;exitDy=0;exitPerimeter=0;entryX=1;entryY=0.5;entryDx=0;entryDy=0;" edge="1" parent="1" source="4-qEtb7NXYfSOB5wchUg-3" target="4-qEtb7NXYfSOB5wchUg-13">
          <mxGeometry width="50" height="50" relative="1" as="geometry">
            <mxPoint x="-74" y="701" as="sourcePoint" />
            <mxPoint x="-24" y="651" as="targetPoint" />
          </mxGeometry>
        </mxCell>
        <mxCell id="4-qEtb7NXYfSOB5wchUg-21" value="" style="edgeStyle=elbowEdgeStyle;elbow=horizontal;endArrow=classic;html=1;curved=0;rounded=0;endSize=8;startSize=8;fontFamily=Architects Daughter;fontSource=https%3A%2F%2Ffonts.googleapis.com%2Fcss%3Ffamily%3DArchitects%2BDaughter;fontSize=16;sourcePerimeterSpacing=8;targetPerimeterSpacing=8;exitX=1;exitY=1;exitDx=0;exitDy=0;exitPerimeter=0;entryX=1;entryY=0.5;entryDx=0;entryDy=0;" edge="1" parent="1" source="4-qEtb7NXYfSOB5wchUg-3" target="4-qEtb7NXYfSOB5wchUg-14">
          <mxGeometry width="50" height="50" relative="1" as="geometry">
            <mxPoint x="-74" y="738" as="sourcePoint" />
            <mxPoint x="-24" y="688" as="targetPoint" />
            <Array as="points">
              <mxPoint x="-141" y="732" />
            </Array>
          </mxGeometry>
        </mxCell>
        <mxCell id="4-qEtb7NXYfSOB5wchUg-22" value="Attend virtual classes" style="ellipse;whiteSpace=wrap;html=1;fontFamily=Architects Daughter;fontSource=https%3A%2F%2Ffonts.googleapis.com%2Fcss%3Ffamily%3DArchitects%2BDaughter;" vertex="1" parent="1">
          <mxGeometry x="53" y="748" width="103" height="70" as="geometry" />
        </mxCell>
        <mxCell id="4-qEtb7NXYfSOB5wchUg-23" value="" style="edgeStyle=elbowEdgeStyle;elbow=horizontal;endArrow=classic;html=1;curved=0;rounded=0;endSize=8;startSize=8;fontFamily=Architects Daughter;fontSource=https%3A%2F%2Ffonts.googleapis.com%2Fcss%3Ffamily%3DArchitects%2BDaughter;fontSize=16;sourcePerimeterSpacing=8;targetPerimeterSpacing=8;exitX=1;exitY=1;exitDx=0;exitDy=0;exitPerimeter=0;entryX=0;entryY=0.5;entryDx=0;entryDy=0;" edge="1" parent="1" source="4-qEtb7NXYfSOB5wchUg-3" target="4-qEtb7NXYfSOB5wchUg-22">
          <mxGeometry width="50" height="50" relative="1" as="geometry">
            <mxPoint x="-74" y="632" as="sourcePoint" />
            <mxPoint x="-24" y="582" as="targetPoint" />
            <Array as="points">
              <mxPoint x="-71" y="678" />
            </Array>
          </mxGeometry>
        </mxCell>
        <mxCell id="4-qEtb7NXYfSOB5wchUg-24" value="Submit ratings and reviews" style="ellipse;whiteSpace=wrap;html=1;fontFamily=Architects Daughter;fontSource=https%3A%2F%2Ffonts.googleapis.com%2Fcss%3Ffamily%3DArchitects%2BDaughter;" vertex="1" parent="1">
          <mxGeometry x="53" y="906" width="103" height="70" as="geometry" />
        </mxCell>
        <mxCell id="4-qEtb7NXYfSOB5wchUg-25" value="" style="edgeStyle=elbowEdgeStyle;elbow=horizontal;endArrow=classic;html=1;curved=0;rounded=0;endSize=8;startSize=8;fontFamily=Architects Daughter;fontSource=https%3A%2F%2Ffonts.googleapis.com%2Fcss%3Ffamily%3DArchitects%2BDaughter;fontSize=16;sourcePerimeterSpacing=8;targetPerimeterSpacing=8;entryX=0;entryY=0.5;entryDx=0;entryDy=0;" edge="1" parent="1" source="4-qEtb7NXYfSOB5wchUg-3" target="4-qEtb7NXYfSOB5wchUg-24">
          <mxGeometry width="50" height="50" relative="1" as="geometry">
            <mxPoint x="-11" y="924" as="sourcePoint" />
            <mxPoint x="39" y="874" as="targetPoint" />
            <Array as="points">
              <mxPoint x="-95" y="736" />
            </Array>
          </mxGeometry>
        </mxCell>
        <mxCell id="4-qEtb7NXYfSOB5wchUg-26" value="Chat with AI assistant&amp;nbsp;" style="ellipse;whiteSpace=wrap;html=1;fontFamily=Architects Daughter;fontSource=https%3A%2F%2Ffonts.googleapis.com%2Fcss%3Ffamily%3DArchitects%2BDaughter;" vertex="1" parent="1">
          <mxGeometry x="-393" y="1044" width="103" height="70" as="geometry" />
        </mxCell>
        <mxCell id="4-qEtb7NXYfSOB5wchUg-27" value="" style="edgeStyle=elbowEdgeStyle;elbow=horizontal;endArrow=classic;html=1;curved=0;rounded=0;endSize=8;startSize=8;fontFamily=Architects Daughter;fontSource=https%3A%2F%2Ffonts.googleapis.com%2Fcss%3Ffamily%3DArchitects%2BDaughter;fontSize=16;sourcePerimeterSpacing=8;targetPerimeterSpacing=8;entryX=1;entryY=0.5;entryDx=0;entryDy=0;" edge="1" parent="1" source="4-qEtb7NXYfSOB5wchUg-3" target="4-qEtb7NXYfSOB5wchUg-26">
          <mxGeometry width="50" height="50" relative="1" as="geometry">
            <mxPoint x="-98" y="926" as="sourcePoint" />
            <mxPoint x="-48" y="876" as="targetPoint" />
            <Array as="points">
              <mxPoint x="-172" y="819" />
            </Array>
          </mxGeometry>
        </mxCell>
      </root>
    </mxGraphModel>
  </diagram>
</mxfile>
